# xmcd
#
# Track frame offsets:
#	150
#	28960
#	46150
#	89767
#	103027
#	113360
#	142225
#	155967
#	171730
#	190710
#	202082
#	220592
#	233577
#	237835
#	247170
#	251632
#	267115
#	275857
#	295950
#
# Disc length: 3952 seconds
#
# Revision: 3
# Processed by: cddbd v1.5.2PL0 Copyright (c) Steve Scherf et al.
# Submitted via: EasyCDDAExtractor 9.1.3.1
#
DISCID=2d0f6e13
DTITLE=Big Bill Broonzy - The Bill Broonzy Story - Disc 2
DYEAR=1957
DGENRE=Blues
TTITLE0=Dialogue
TTITLE1=Stump Blues
TTITLE2=Dialogue
TTITLE3=See See Rider
TTITLE4=I'm Gonna Move To The Outskirts Of Town
TTITLE5=Dialogue
TTITLE6=This Train
TTITLE7=Dialogue
TTITLE8=Hush, Hush
TTITLE9=Dialogue
TTITLE10=Backwater Blues
TTITLE11=Slow Blues
TTITLE12=Dialogue
TTITLE13=It Hurts Me Too
TTITLE14=Dialogue
TTITLE15=Kansas City Blues
TTITLE16=Dialogue
TTITLE17=In The Evenin' (When The Sun Goes Down)
TTITLE18=Dialogue
EXTD=YEAR: 1957  ID3G:   0
EXTT0=
EXTT1=
EXTT2=
EXTT3=
EXTT4=
EXTT5=
EXTT6=
EXTT7=
EXTT8=
EXTT9=
EXTT10=
EXTT11=
EXTT12=
EXTT13=
EXTT14=
EXTT15=
EXTT16=
EXTT17=
EXTT18=
PLAYORDER=
